<svg width="333" height="33" viewBox="0 0 333 33" fill="none" xmlns="http://www.w3.org/2000/svg">
<path d="M0.308594 14.6387V0.078125H9.07422V14.6387H0.308594ZM17.582 7.36133H8.81641V0.078125H17.582V7.36133ZM26.0898 14.6387H17.3242V7.36133H26.0898V14.6387ZM34.5977 7.36133H25.832V0.078125H34.5977V7.36133ZM34.3398 14.6387V0.078125H43.1055V14.6387H34.3398ZM45.8477 14.6387V0.078125H54.6133V14.6387H45.8477ZM63.1211 7.36133H54.3555V0.078125H63.1211V7.36133ZM62.8633 14.6387V0.078125H71.6289V14.6387H62.8633ZM83.1367 7.36133H74.3711V0.078125H83.1367V7.36133ZM82.8789 14.6387V0.078125H91.6445V14.6387H82.8789ZM94.3867 14.6387V0.078125H103.152V14.6387H94.3867ZM111.66 7.36133H102.895V0.078125H111.66V7.36133ZM120.168 7.36133H111.402V0.078125H120.168V7.36133ZM122.91 14.6387V0.078125H131.676V14.6387H122.91ZM140.184 14.6387H131.418V7.36133H140.184V14.6387ZM139.926 14.6387V0.078125H148.691V14.6387H139.926ZM151.434 14.6387V0.078125H160.199V14.6387H151.434ZM168.707 14.6387H159.941V7.36133H168.707V14.6387ZM177.215 14.6387H168.449V7.36133H177.215V14.6387ZM179.957 14.6387V0.078125H188.723V14.6387H179.957ZM197.23 7.36133H188.465V0.078125H197.23V7.36133ZM205.738 7.36133H196.973V0.078125H205.738V7.36133ZM208.48 14.6387V0.078125H217.246V14.6387H208.48ZM225.754 7.36133H216.988V0.078125H225.754V7.36133ZM225.496 14.6387V0.078125H234.262V14.6387H225.496ZM245.77 14.6387H237.004V7.36133H245.77V14.6387ZM254.277 7.36133H245.512V0.078125H254.277V7.36133ZM254.02 14.6387V0.078125H262.785V14.6387H254.02ZM265.527 14.6387V0.078125H274.293V14.6387H265.527ZM282.801 14.6387H274.035V7.36133H282.801V14.6387ZM283.275 0.078125H284.008V0.810547H283.275V0.078125ZM286.193 0.078125H286.926V0.810547H286.193V0.078125ZM289.117 0.078125H289.85V0.810547H289.117V0.078125ZM284.734 1.53711H285.467V2.26953H284.734V1.53711ZM287.658 1.53711H288.385V2.26953H287.658V1.53711ZM290.576 1.53711H291.309V2.26953H290.576V1.53711ZM289.117 2.99609H289.85V3.72852H289.117V2.99609ZM286.193 2.99609H286.926V3.72852H286.193V2.99609ZM283.275 2.99609H284.008V3.72852H283.275V2.99609ZM290.576 4.46094H291.309V5.1875H290.576V4.46094ZM287.658 4.46094H288.385V5.1875H287.658V4.46094ZM284.734 4.46094H285.467V5.1875H284.734V4.46094ZM283.275 5.91992H284.008V6.65234H283.275V5.91992ZM286.193 5.91992H286.926V6.65234H286.193V5.91992ZM289.117 5.91992H289.85V6.65234H289.117V5.91992ZM290.576 7.37891H291.309V8.11133H290.576V7.37891ZM287.658 7.37891H288.385V8.11133H287.658V7.37891ZM284.734 7.37891H285.467V8.11133H284.734V7.37891ZM283.275 8.83789H284.008V9.57031H283.275V8.83789ZM286.193 8.83789H286.926V9.57031H286.193V8.83789ZM289.117 8.83789H289.85V9.57031H289.117V8.83789ZM284.734 10.3027H285.467V11.0293H284.734V10.3027ZM287.658 10.3027H288.385V11.0293H287.658V10.3027ZM290.576 10.3027H291.309V11.0293H290.576V10.3027ZM289.117 11.7617H289.85V12.4941H289.117V11.7617ZM286.193 11.7617H286.926V12.4941H286.193V11.7617ZM283.275 11.7617H284.008V12.4941H283.275V11.7617ZM284.734 13.2207H285.467V13.9531H284.734V13.2207ZM287.658 13.2207H288.385V13.9531H287.658V13.2207ZM290.576 13.2207H291.309V13.9531H290.576V13.2207ZM291.051 14.6387V0.078125H299.816V14.6387H291.051ZM302.559 14.6387V0.078125H311.324V14.6387H302.559ZM319.832 14.6387H311.066V7.36133H319.832V14.6387ZM328.34 7.36133H319.574V0.078125H328.34V7.36133ZM4.97852 32.6387V18.0781H13.7441V32.6387H4.97852ZM14.2188 18.0781H14.9512V18.8105H14.2188V18.0781ZM17.1367 18.0781H17.8691V18.8105H17.1367V18.0781ZM20.0605 18.0781H20.793V18.8105H20.0605V18.0781ZM15.6777 19.5371H16.4102V20.2695H15.6777V19.5371ZM18.6016 19.5371H19.3281V20.2695H18.6016V19.5371ZM21.5195 19.5371H22.252V20.2695H21.5195V19.5371ZM20.0605 20.9961H20.793V21.7285H20.0605V20.9961ZM17.1367 20.9961H17.8691V21.7285H17.1367V20.9961ZM14.2188 20.9961H14.9512V21.7285H14.2188V20.9961ZM21.5195 22.4609H22.252V23.1875H21.5195V22.4609ZM18.6016 22.4609H19.3281V23.1875H18.6016V22.4609ZM15.6777 22.4609H16.4102V23.1875H15.6777V22.4609ZM14.2188 23.9199H14.9512V24.6523H14.2188V23.9199ZM17.1367 23.9199H17.8691V24.6523H17.1367V23.9199ZM20.0605 23.9199H20.793V24.6523H20.0605V23.9199ZM21.5195 25.3789H22.252V26.1113H21.5195V25.3789ZM18.6016 25.3789H19.3281V26.1113H18.6016V25.3789ZM15.6777 25.3789H16.4102V26.1113H15.6777V25.3789ZM14.2188 26.8379H14.9512V27.5703H14.2188V26.8379ZM17.1367 26.8379H17.8691V27.5703H17.1367V26.8379ZM20.0605 26.8379H20.793V27.5703H20.0605V26.8379ZM15.6777 28.3027H16.4102V29.0293H15.6777V28.3027ZM18.6016 28.3027H19.3281V29.0293H18.6016V28.3027ZM21.5195 28.3027H22.252V29.0293H21.5195V28.3027ZM20.0605 29.7617H20.793V30.4941H20.0605V29.7617ZM17.1367 29.7617H17.8691V30.4941H17.1367V29.7617ZM14.2188 29.7617H14.9512V30.4941H14.2188V29.7617ZM15.6777 31.2207H16.4102V31.9531H15.6777V31.2207ZM18.6016 31.2207H19.3281V31.9531H18.6016V31.2207ZM21.5195 31.2207H22.252V31.9531H21.5195V31.2207ZM30.7598 25.3613H21.9941V18.0781H30.7598V25.3613ZM31.2344 18.0781H31.9668V18.8105H31.2344V18.0781ZM34.1523 18.0781H34.8848V18.8105H34.1523V18.0781ZM37.0762 18.0781H37.8086V18.8105H37.0762V18.0781ZM32.6934 19.5371H33.4258V20.2695H32.6934V19.5371ZM35.6172 19.5371H36.3438V20.2695H35.6172V19.5371ZM38.5352 19.5371H39.2676V20.2695H38.5352V19.5371ZM37.0762 20.9961H37.8086V21.7285H37.0762V20.9961ZM34.1523 20.9961H34.8848V21.7285H34.1523V20.9961ZM31.2344 20.9961H31.9668V21.7285H31.2344V20.9961ZM38.5352 22.4609H39.2676V23.1875H38.5352V22.4609ZM35.6172 22.4609H36.3438V23.1875H35.6172V22.4609ZM32.6934 22.4609H33.4258V23.1875H32.6934V22.4609ZM31.2344 23.9199H31.9668V24.6523H31.2344V23.9199ZM34.1523 23.9199H34.8848V24.6523H34.1523V23.9199ZM37.0762 23.9199H37.8086V24.6523H37.0762V23.9199ZM38.5352 25.3789H39.2676V26.1113H38.5352V25.3789ZM35.6172 25.3789H36.3438V26.1113H35.6172V25.3789ZM32.6934 25.3789H33.4258V26.1113H32.6934V25.3789ZM31.2344 26.8379H31.9668V27.5703H31.2344V26.8379ZM34.1523 26.8379H34.8848V27.5703H34.1523V26.8379ZM37.0762 26.8379H37.8086V27.5703H37.0762V26.8379ZM32.6934 28.3027H33.4258V29.0293H32.6934V28.3027ZM35.6172 28.3027H36.3438V29.0293H35.6172V28.3027ZM38.5352 28.3027H39.2676V29.0293H38.5352V28.3027ZM37.0762 29.7617H37.8086V30.4941H37.0762V29.7617ZM34.1523 29.7617H34.8848V30.4941H34.1523V29.7617ZM31.2344 29.7617H31.9668V30.4941H31.2344V29.7617ZM32.6934 31.2207H33.4258V31.9531H32.6934V31.2207ZM35.6172 31.2207H36.3438V31.9531H35.6172V31.2207ZM38.5352 31.2207H39.2676V31.9531H38.5352V31.2207ZM39.0098 32.6387V18.0781H47.7754V32.6387H39.0098ZM50.5176 32.6387V18.0781H59.2832V32.6387H50.5176ZM67.791 32.6387H59.0254V25.3613H67.791V32.6387ZM67.5332 32.6387V18.0781H76.2988V32.6387H67.5332ZM79.041 32.6387V18.0781H87.8066V32.6387H79.041ZM96.3145 32.6387H87.5488V25.3613H96.3145V32.6387ZM99.0566 32.6387V18.0781H107.822V32.6387H99.0566ZM116.33 32.6387H107.564V25.3613H116.33V32.6387ZM124.838 32.6387H116.072V25.3613H124.838V32.6387ZM128.312 18.0781H129.045V18.8105H128.312V18.0781ZM131.23 18.0781H131.963V18.8105H131.23V18.0781ZM134.154 18.0781H134.887V18.8105H134.154V18.0781ZM129.771 19.5371H130.504V20.2695H129.771V19.5371ZM132.695 19.5371H133.422V20.2695H132.695V19.5371ZM135.613 19.5371H136.346V20.2695H135.613V19.5371ZM134.154 20.9961H134.887V21.7285H134.154V20.9961ZM131.23 20.9961H131.963V21.7285H131.23V20.9961ZM128.312 20.9961H129.045V21.7285H128.312V20.9961ZM135.613 22.4609H136.346V23.1875H135.613V22.4609ZM132.695 22.4609H133.422V23.1875H132.695V22.4609ZM129.771 22.4609H130.504V23.1875H129.771V22.4609ZM128.312 23.9199H129.045V24.6523H128.312V23.9199ZM131.23 23.9199H131.963V24.6523H131.23V23.9199ZM134.154 23.9199H134.887V24.6523H134.154V23.9199ZM135.613 25.3789H136.346V26.1113H135.613V25.3789ZM132.695 25.3789H133.422V26.1113H132.695V25.3789ZM129.771 25.3789H130.504V26.1113H129.771V25.3789ZM128.312 26.8379H129.045V27.5703H128.312V26.8379ZM131.23 26.8379H131.963V27.5703H131.23V26.8379ZM134.154 26.8379H134.887V27.5703H134.154V26.8379ZM129.771 28.3027H130.504V29.0293H129.771V28.3027ZM132.695 28.3027H133.422V29.0293H132.695V28.3027ZM135.613 28.3027H136.346V29.0293H135.613V28.3027ZM134.154 29.7617H134.887V30.4941H134.154V29.7617ZM131.23 29.7617H131.963V30.4941H131.23V29.7617ZM128.312 29.7617H129.045V30.4941H128.312V29.7617ZM129.771 31.2207H130.504V31.9531H129.771V31.2207ZM132.695 31.2207H133.422V31.9531H132.695V31.2207ZM135.613 31.2207H136.346V31.9531H135.613V31.2207ZM136.088 32.6387V18.0781H144.854V32.6387H136.088ZM145.328 18.0781H146.061V18.8105H145.328V18.0781ZM148.246 18.0781H148.979V18.8105H148.246V18.0781ZM151.17 18.0781H151.902V18.8105H151.17V18.0781ZM146.787 19.5371H147.52V20.2695H146.787V19.5371ZM149.711 19.5371H150.438V20.2695H149.711V19.5371ZM152.629 19.5371H153.361V20.2695H152.629V19.5371ZM151.17 20.9961H151.902V21.7285H151.17V20.9961ZM148.246 20.9961H148.979V21.7285H148.246V20.9961ZM145.328 20.9961H146.061V21.7285H145.328V20.9961ZM152.629 22.4609H153.361V23.1875H152.629V22.4609ZM149.711 22.4609H150.438V23.1875H149.711V22.4609ZM146.787 22.4609H147.52V23.1875H146.787V22.4609ZM145.328 23.9199H146.061V24.6523H145.328V23.9199ZM148.246 23.9199H148.979V24.6523H148.246V23.9199ZM151.17 23.9199H151.902V24.6523H151.17V23.9199ZM152.629 25.3789H153.361V26.1113H152.629V25.3789ZM149.711 25.3789H150.438V26.1113H149.711V25.3789ZM146.787 25.3789H147.52V26.1113H146.787V25.3789ZM145.328 26.8379H146.061V27.5703H145.328V26.8379ZM148.246 26.8379H148.979V27.5703H148.246V26.8379ZM151.17 26.8379H151.902V27.5703H151.17V26.8379ZM146.787 28.3027H147.52V29.0293H146.787V28.3027ZM149.711 28.3027H150.438V29.0293H149.711V28.3027ZM152.629 28.3027H153.361V29.0293H152.629V28.3027ZM151.17 29.7617H151.902V30.4941H151.17V29.7617ZM148.246 29.7617H148.979V30.4941H148.246V29.7617ZM145.328 29.7617H146.061V30.4941H145.328V29.7617ZM146.787 31.2207H147.52V31.9531H146.787V31.2207ZM149.711 31.2207H150.438V31.9531H149.711V31.2207ZM152.629 31.2207H153.361V31.9531H152.629V31.2207ZM156.104 32.6387V18.0781H164.869V32.6387H156.104ZM173.377 32.6387H164.611V25.3613H173.377V32.6387ZM173.119 32.6387V18.0781H181.885V32.6387H173.119ZM184.627 32.6387V18.0781H193.393V32.6387H184.627ZM193.135 32.6387V18.0781H201.9V32.6387H193.135ZM210.408 32.6387H201.643V25.3613H210.408V32.6387ZM213.15 32.6387V18.0781H221.916V32.6387H213.15ZM230.424 25.3613H221.658V18.0781H230.424V25.3613ZM238.932 32.6387H230.166V25.3613H238.932V32.6387ZM241.674 32.6387V18.0781H250.439V32.6387H241.674ZM258.947 25.3613H250.182V18.0781H258.947V25.3613ZM258.689 32.6387V18.0781H267.455V32.6387H258.689ZM270.197 32.6387V18.0781H278.963V32.6387H270.197ZM279.438 18.0781H280.17V18.8105H279.438V18.0781ZM282.355 18.0781H283.088V18.8105H282.355V18.0781ZM285.279 18.0781H286.012V18.8105H285.279V18.0781ZM280.896 19.5371H281.629V20.2695H280.896V19.5371ZM283.82 19.5371H284.547V20.2695H283.82V19.5371ZM286.738 19.5371H287.471V20.2695H286.738V19.5371ZM285.279 20.9961H286.012V21.7285H285.279V20.9961ZM282.355 20.9961H283.088V21.7285H282.355V20.9961ZM279.438 20.9961H280.17V21.7285H279.438V20.9961ZM286.738 22.4609H287.471V23.1875H286.738V22.4609ZM283.82 22.4609H284.547V23.1875H283.82V22.4609ZM280.896 22.4609H281.629V23.1875H280.896V22.4609ZM279.438 23.9199H280.17V24.6523H279.438V23.9199ZM282.355 23.9199H283.088V24.6523H282.355V23.9199ZM285.279 23.9199H286.012V24.6523H285.279V23.9199ZM286.738 25.3789H287.471V26.1113H286.738V25.3789ZM283.82 25.3789H284.547V26.1113H283.82V25.3789ZM280.896 25.3789H281.629V26.1113H280.896V25.3789ZM279.438 26.8379H280.17V27.5703H279.438V26.8379ZM282.355 26.8379H283.088V27.5703H282.355V26.8379ZM285.279 26.8379H286.012V27.5703H285.279V26.8379ZM280.896 28.3027H281.629V29.0293H280.896V28.3027ZM283.82 28.3027H284.547V29.0293H283.82V28.3027ZM286.738 28.3027H287.471V29.0293H286.738V28.3027ZM285.279 29.7617H286.012V30.4941H285.279V29.7617ZM282.355 29.7617H283.088V30.4941H282.355V29.7617ZM279.438 29.7617H280.17V30.4941H279.438V29.7617ZM280.896 31.2207H281.629V31.9531H280.896V31.2207ZM283.82 31.2207H284.547V31.9531H283.82V31.2207ZM286.738 31.2207H287.471V31.9531H286.738V31.2207ZM295.979 25.3613H287.213V18.0781H295.979V25.3613ZM295.721 32.6387V18.0781H304.486V32.6387H295.721ZM307.229 32.6387V18.0781H315.994V32.6387H307.229ZM316.469 18.0781H317.201V18.8105H316.469V18.0781ZM319.387 18.0781H320.119V18.8105H319.387V18.0781ZM322.311 18.0781H323.043V18.8105H322.311V18.0781ZM317.928 19.5371H318.66V20.2695H317.928V19.5371ZM320.852 19.5371H321.578V20.2695H320.852V19.5371ZM323.77 19.5371H324.502V20.2695H323.77V19.5371ZM322.311 20.9961H323.043V21.7285H322.311V20.9961ZM319.387 20.9961H320.119V21.7285H319.387V20.9961ZM316.469 20.9961H317.201V21.7285H316.469V20.9961ZM323.77 22.4609H324.502V23.1875H323.77V22.4609ZM320.852 22.4609H321.578V23.1875H320.852V22.4609ZM317.928 22.4609H318.66V23.1875H317.928V22.4609ZM316.469 23.9199H317.201V24.6523H316.469V23.9199ZM319.387 23.9199H320.119V24.6523H319.387V23.9199ZM322.311 23.9199H323.043V24.6523H322.311V23.9199ZM323.77 25.3789H324.502V26.1113H323.77V25.3789ZM320.852 25.3789H321.578V26.1113H320.852V25.3789ZM317.928 25.3789H318.66V26.1113H317.928V25.3789ZM316.469 26.8379H317.201V27.5703H316.469V26.8379ZM319.387 26.8379H320.119V27.5703H319.387V26.8379ZM322.311 26.8379H323.043V27.5703H322.311V26.8379ZM317.928 28.3027H318.66V29.0293H317.928V28.3027ZM320.852 28.3027H321.578V29.0293H320.852V28.3027ZM323.77 28.3027H324.502V29.0293H323.77V28.3027ZM322.311 29.7617H323.043V30.4941H322.311V29.7617ZM319.387 29.7617H320.119V30.4941H319.387V29.7617ZM316.469 29.7617H317.201V30.4941H316.469V29.7617ZM317.928 31.2207H318.66V31.9531H317.928V31.2207ZM320.852 31.2207H321.578V31.9531H320.852V31.2207ZM323.77 31.2207H324.502V31.9531H323.77V31.2207ZM324.244 32.6387V18.0781H333.01V32.6387H324.244Z" fill="#16CA7E"/>
</svg>
